<mxfile host="app.diagrams.net" modified="2024-04-21T13:03:04.809Z" agent="Mozilla/5.0 (Windows NT 10.0; Win64; x64) AppleWebKit/537.36 (KHTML, like Gecko) Chrome/123.0.0.0 Safari/537.36" version="24.2.7" etag="kNCyv4Ad7lS6yshj8ygR" type="github">
  <diagram name="Page-1" id="zMpLuHe-vBW_cuoP-p1V">
    <mxGraphModel>
      <root>
        <mxCell id="0" />
        <mxCell id="1" parent="0" />
      </root>
    </mxGraphModel>
  </diagram>
</mxfile>
